<?xml version="1.0" encoding="UTF-8"?>
<svg id="_Слой_1" data-name="Слой 1" xmlns="http://www.w3.org/2000/svg" viewBox="0 0 343.43 158.14">
  <defs>
    <style>
      .cls-1 {
        fill: #c59368;
      }

      .cls-1, .cls-2, .cls-3 {
        stroke-width: 0px;
      }

      .cls-2 {
        fill: #562212;
      }

      .cls-3 {
        fill: #ed5338;
      }
    </style>
  </defs>
  <g>
    <path class="cls-2" d="m21.92,114.69c6.83,0,12.09-5.24,12.09-12.45,0-7.77-4.65-12.3-11.95-12.3-4.99,0-10.92,3.97-12.82,8.89,0,8.45,4.62,15.86,12.68,15.86h0Zm15.09-44.41c-1.84.55-4.98,1.31-8.03,1.96-2.86.61-6.6,1.15-10.38,2.49-6.01,2.14-9.11,8.32-9.67,16.08-.04.5-.25,1.02-.38,1.54h.33c2.33-5.05,8.7-8.43,14.8-8.43,10.62,0,17.61,7.09,17.61,18,0,9.45-7.32,18.86-19.37,18.86-13.11,0-19.94-10.81-19.94-24.51,0-15.25,4.22-23.34,13.84-27.39,2.83-1.19,5.25-1.58,7.47-2.03,5.24-1.07,8.36-1.74,11.71-2.66l2.03,6.1h0Z"/>
    <path class="cls-2" d="m52.73,119.55h-6.45v-36.03h7.19v23.56c0,.84-.18,1.68-.33,2.25.2,0,.33,0,.33,0l20.59-25.81h6.45v36.03h-7.19v-23.55c0-.83.17-1.78.34-2.34h-.33l-20.58,25.9h0Z"/>
    <path class="cls-2" d="m85.24,115.86l2.84-5.19c2.89,2.33,7.33,3.96,11.12,3.96,5.38,0,8.93-2.41,8.93-5.93,0-2.97-2.21-4.48-6.62-4.48h-6.09v-5.6h5.69c3.61,0,5.83-2.04,5.83-4.92,0-3.21-2.54-5.17-7.28-5.17-3.38,0-7.51,1.26-10.74,3.8l-2.83-5.11c4.32-3.31,9.56-4.69,14.54-4.69,8.66,0,13.55,3.87,13.55,9.88,0,4.17-2.08,6.97-6.33,8.5v.16c4.81.56,7.5,4.09,7.5,8.5,0,6.65-6.62,11.2-15.28,11.2-6.3,0-11.7-2.07-14.83-4.91h0Z"/>
    <polygon class="cls-2" points="146.88 119.55 146.88 103.9 127.54 103.9 127.54 119.55 120.36 119.55 120.36 83.52 127.54 83.52 127.54 98.3 146.88 98.3 146.88 83.52 154.07 83.52 154.07 119.55 146.88 119.55 146.88 119.55"/>
    <path class="cls-2" d="m176.95,88.58c6.5,0,9.66,4.37,10.23,9.91h-20.59c.91-5.58,5-9.91,10.36-9.91h0Zm17.1,15.52c.07-.74.12-1.48.12-2.25,0-10.98-5.3-19.31-17.57-19.31-10.6,0-17.52,8.33-17.52,19.31s6.96,18.93,19.58,18.93c6.09,0,11.28-1.87,15.01-4.91l-2.84-5.19c-2.77,2.08-6.99,4.01-11.97,4.01-7.89,0-11.7-4.29-12.39-10.58h27.56Z"/>
    <path class="cls-2" d="m218.49,88.69c3.64,0,7.32.96,11.53,3.68,0,0,1.83-3.3,2.92-5.29-4.32-3.06-9.3-4.58-14.65-4.58-11.61,0-19.39,8.15-19.39,19.13s7.76,19.15,19.51,19.15c5.76,0,10.79-1.65,14.52-4.7l-2.84-5.19c-2.77,2.08-6.77,3.65-11.2,3.65-7.34,0-12.74-5.51-12.74-13.34,0-6.69,4.31-12.5,12.33-12.5h0Z"/>
    <path class="cls-2" d="m215.3,24.63c0,2.58-1.17,4.07-3.19,4.07s-3.18-1.59-3.18-4.07h-10.46c.29,7.67,4.73,12.84,13.81,12.84,8.38,0,13.16-5.32,13.48-12.84h-10.46Z"/>
    <path class="cls-2" d="m193.17,76.31v-36.03h12.09s0,15.54,0,16.77-.26,2.62-.26,2.62h.52l13.16-19.4h11.57v36.03h-12.09v-16.93c0-1.21.26-2.36.26-2.36h-.52l-13.16,19.29h-11.57Z"/>
    <path class="cls-2" d="m168.23,66.03c4.39,0,7.3-3.41,7.3-7.68s-2.92-7.79-7.3-7.79-7.3,3.41-7.3,7.79,3.03,7.68,7.3,7.68h0Zm0-26.67c11.47,0,20.03,8.11,20.03,18.99s-8.55,18.88-20.03,18.88-19.92-8.12-19.92-18.88,8.56-18.99,19.92-18.99h0Z"/>
    <path class="cls-2" d="m133.83,40.27s-10.1,13.12-10.51,13.62c-.5.61-.54.95-.54.95h-.52s-.1-.36-.58-.95c-.71-.88-11.17-13.62-11.17-13.62h-9.53v36.03h11.65v-15.12c0-1.63-.26-2.62-.26-2.62h.53l9.37,10.76h.5l8.68-10.76h.52s-.26.98-.26,2.62v15.12h11.66v-36.03h-9.54Z"/>
    <polygon class="cls-3" points="307.19 131.62 295.09 119.54 282.99 131.62 295.09 156.88 307.19 131.62 307.19 131.62"/>
    <path class="cls-1" d="m295.03,50.04c-4.64,0-8.41,3.76-8.41,8.41s3.76,8.41,8.41,8.41,8.41-3.76,8.41-8.41-3.76-8.41-8.41-8.41h0Z"/>
    <path class="cls-1" d="m305.87,93.01l-10.78-10.8-10.78,10.8c-.55-1.5-7.77-21.05-7.77-33.81,0-17.21,17.26-26.85,18.56-27.55,1.3.71,18.56,10.35,18.56,27.55,0,12.76-7.22,32.31-7.77,33.81h0Zm-10.78-80.69c-2.56,1.31-36.03,19-36.03,47.26,0,24.17,19.7,60.83,19.7,60.83l16.33-16.36,16.33,16.36s19.7-36.66,19.7-60.83c0-28.26-33.47-45.94-36.03-47.26h0Z"/>
    <polygon class="cls-1" points="331.12 24.63 318.81 12.31 331.12 0 343.43 12.31 331.12 24.63 331.12 24.63"/>
  </g>
  <g>
    <path class="cls-2" d="m2.18,153.02H0v-17.92c.32,0,1.09,0,2.29-.02s2-.02,2.39-.02c2.36,0,4.05.52,5.08,1.57,1.03,1.05,1.55,2.37,1.55,3.98s-.56,2.9-1.68,3.99c-1.12,1.09-2.71,1.64-4.77,1.64-.99,0-1.89-.04-2.69-.1v6.89Zm2.71-15.92c-.68,0-1.59.02-2.71.05v6.91c.97.09,1.84.13,2.61.13,1.31,0,2.35-.32,3.1-.96s1.13-1.52,1.13-2.65-.34-1.95-1.02-2.56-1.71-.92-3.1-.92Z"/>
    <path class="cls-2" d="m22.09,150.15l.64,1.61c-1.11,1.01-2.55,1.51-4.33,1.51s-3.35-.55-4.48-1.64c-1.13-1.09-1.69-2.55-1.69-4.38s.53-3.18,1.59-4.31,2.51-1.7,4.35-1.7c1.52,0,2.79.49,3.81,1.47s1.54,2.25,1.54,3.8c0,.53-.04.99-.13,1.38h-8.86c.09,1.07.49,1.92,1.22,2.54.73.61,1.66.92,2.8.92,1.5,0,2.68-.4,3.53-1.2Zm-4.02-6.99c-1.02,0-1.86.29-2.51.86-.65.57-1.03,1.31-1.15,2.21h6.99c-.05-.96-.37-1.71-.96-2.25-.59-.55-1.38-.82-2.37-.82Z"/>
    <path class="cls-2" d="m35.02,149.87l.97,1.48c-.48.61-1.11,1.09-1.89,1.42-.79.33-1.63.5-2.53.5-1.84,0-3.33-.55-4.47-1.65-1.13-1.1-1.7-2.55-1.7-4.36,0-1.69.55-3.11,1.66-4.27,1.11-1.16,2.5-1.74,4.17-1.74,2.01,0,3.52.5,4.53,1.51l-.95,1.61c-.87-.8-1.97-1.2-3.3-1.2-1.07,0-2,.39-2.78,1.16-.78.78-1.16,1.75-1.16,2.93s.4,2.22,1.19,2.97c.79.75,1.78,1.12,2.96,1.12,1.33,0,2.43-.49,3.3-1.48Z"/>
    <path class="cls-2" d="m46.97,153.02v-9.6h-6.27v9.6h-2.05v-11.52h10.37v11.52h-2.05Z"/>
    <path class="cls-2" d="m63.2,141.5l-4.61,11.52c-.82,2-1.54,3.35-2.18,4.06-.63.71-1.37,1.06-2.23,1.06-.73,0-1.46-.24-2.18-.72l.67-1.56c.55.26.97.38,1.28.38.48,0,.91-.2,1.29-.61.38-.41.77-1.07,1.16-2l.26-.61-5.53-11.52h2.46l3.38,7.32c.07.15.3.73.69,1.74.15-.56.33-1.15.54-1.77l2.66-7.3h2.33Z"/>
    <path class="cls-2" d="m74.21,134.84l1.1,1.61c-.41.56-.91.95-1.49,1.15-.58.2-1.3.37-2.15.51-.85.14-1.6.35-2.23.64-1.74.78-2.71,2.64-2.92,5.55h.05c.37-.8.99-1.45,1.83-1.95.84-.49,1.75-.74,2.73-.74,1.64,0,2.94.52,3.9,1.56.96,1.04,1.45,2.43,1.45,4.17,0,1.64-.55,3.03-1.66,4.19s-2.53,1.73-4.25,1.73c-1.88,0-3.36-.64-4.45-1.92-1.09-1.28-1.64-3.03-1.64-5.25,0-5,1.42-8.1,4.27-9.29.7-.31,1.45-.52,2.25-.65.8-.13,1.45-.27,1.95-.42.49-.15.91-.45,1.25-.9Zm-7.55,11.65c0,1.47.36,2.64,1.07,3.53s1.65,1.33,2.79,1.33,2.02-.37,2.73-1.12c.71-.75,1.06-1.67,1.06-2.76,0-1.16-.32-2.1-.97-2.83s-1.55-1.09-2.71-1.09c-1.02,0-1.89.29-2.61.87-.72.58-1.17,1.27-1.36,2.07Z"/>
    <path class="cls-2" d="m86.86,153.02v-9.47h-4.04l-.13,1.95c-.1,1.28-.26,2.39-.46,3.32-.21.93-.44,1.67-.7,2.23s-.59.99-.96,1.32c-.37.32-.76.54-1.15.65s-.84.17-1.36.17l-.15-2c.21.02.41-.01.6-.09.2-.08.42-.24.67-.5.25-.26.47-.6.67-1.02.2-.43.37-1.03.54-1.8.16-.78.27-1.67.32-2.67l.21-3.59h8.01v11.52h-2.05Z"/>
    <path class="cls-2" d="m94.64,153.02h-2.05v-11.52h2.05v8.58l6.65-8.58h2.05v11.52h-2.05v-8.57l-6.65,8.57Z"/>
    <path class="cls-2" d="m107.05,153.02v-11.52h2.05v11.52h-2.05Zm10.09-11.52l-5.04,5.5,5.53,6.02h-2.84l-5.2-5.89,4.86-5.63h2.69Z"/>
    <path class="cls-2" d="m120.42,143.93l-.54-1.64c1.13-.7,2.41-1.05,3.84-1.05,1.59,0,2.72.39,3.4,1.18s1.02,1.96,1.02,3.53v7.06h-1.95v-1.49c-.89,1.11-2.12,1.66-3.69,1.66-1.06,0-1.91-.32-2.56-.96-.65-.64-.97-1.51-.97-2.6s.41-2.04,1.22-2.69,1.86-.97,3.14-.97,2.18.25,2.87.74c0-1.23-.17-2.14-.51-2.74-.34-.6-1.04-.9-2.1-.9s-2.1.28-3.17.85Zm2.82,7.42c1.14,0,2.13-.49,2.97-1.48v-1.46c-.72-.51-1.58-.77-2.59-.77-.68,0-1.26.16-1.74.49s-.72.79-.72,1.41c0,.56.18,1.01.55,1.33.37.32.87.49,1.52.49Z"/>
    <path class="cls-2" d="m151.75,135.1l-6.35,8.81,6.58,9.11h-2.59l-5.43-7.45-5.4,7.45h-2.56l6.58-9.11-6.3-8.81h2.56l5.2,7.17,5.12-7.17h2.59Z"/>
    <path class="cls-2" d="m154.95,143.93l-.54-1.64c1.13-.7,2.41-1.05,3.84-1.05,1.59,0,2.72.39,3.4,1.18s1.02,1.96,1.02,3.53v7.06h-1.95v-1.49c-.89,1.11-2.12,1.66-3.69,1.66-1.06,0-1.91-.32-2.56-.96-.65-.64-.97-1.51-.97-2.6s.41-2.04,1.22-2.69,1.86-.97,3.14-.97,2.18.25,2.87.74c0-1.23-.17-2.14-.51-2.74-.34-.6-1.04-.9-2.1-.9s-2.1.28-3.17.85Zm2.82,7.42c1.14,0,2.13-.49,2.97-1.48v-1.46c-.72-.51-1.58-.77-2.59-.77-.68,0-1.26.16-1.74.49s-.72.79-.72,1.41c0,.56.18,1.01.55,1.33.37.32.87.49,1.52.49Z"/>
    <path class="cls-2" d="m166.11,153.02v-11.52h2.05v11.52h-2.05Zm10.09-11.52l-5.04,5.5,5.53,6.02h-2.84l-5.2-5.89,4.86-5.63h2.69Z"/>
    <path class="cls-2" d="m179.47,143.93l-.54-1.64c1.13-.7,2.41-1.05,3.84-1.05,1.59,0,2.72.39,3.4,1.18s1.02,1.96,1.02,3.53v7.06h-1.95v-1.49c-.89,1.11-2.12,1.66-3.69,1.66-1.06,0-1.91-.32-2.56-.96-.65-.64-.97-1.51-.97-2.6s.41-2.04,1.22-2.69,1.86-.97,3.14-.97,2.18.25,2.87.74c0-1.23-.17-2.14-.51-2.74-.34-.6-1.04-.9-2.1-.9s-2.1.28-3.17.85Zm2.82,7.42c1.14,0,2.13-.49,2.97-1.48v-1.46c-.72-.51-1.58-.77-2.59-.77-.68,0-1.26.16-1.74.49s-.72.79-.72,1.41c0,.56.18,1.01.55,1.33.37.32.87.49,1.52.49Z"/>
    <path class="cls-2" d="m199.49,149.87l.97,1.48c-.48.61-1.11,1.09-1.89,1.42-.79.33-1.63.5-2.53.5-1.84,0-3.33-.55-4.47-1.65-1.13-1.1-1.7-2.55-1.7-4.36,0-1.69.55-3.11,1.66-4.27,1.11-1.16,2.5-1.74,4.17-1.74,2.01,0,3.52.5,4.53,1.51l-.95,1.61c-.87-.8-1.97-1.2-3.3-1.2-1.07,0-2,.39-2.78,1.16-.78.78-1.16,1.75-1.16,2.93s.4,2.22,1.19,2.97c.79.75,1.78,1.12,2.96,1.12,1.33,0,2.43-.49,3.3-1.48Z"/>
    <path class="cls-2" d="m205.17,153.02h-2.05v-11.52h2.05v8.58l6.65-8.58h2.05v11.52h-2.05v-8.57l-6.65,8.57Z"/>
    <path class="cls-2" d="m222.63,141.5h3.58v11.52h-2.05v-3.84h-2.23l-2.82,3.84h-2.48l3.33-4.35c-.67-.15-1.25-.52-1.74-1.11-.5-.59-.74-1.33-.74-2.21,0-1.11.41-2.03,1.23-2.75.82-.72,2.12-1.09,3.92-1.09Zm-2.97,3.89c0,.56.22,1.02.67,1.36.44.34.94.51,1.49.51h2.36v-3.84h-1.87c-.9,0-1.57.18-2,.55-.43.37-.64.84-.64,1.42Z"/>
  </g>
</svg>